<mxfile host="app.diagrams.net" modified="2023-05-17T12:02:10.807Z" agent="Mozilla/5.0 (Windows NT 10.0; Win64; x64) AppleWebKit/537.36 (KHTML, like Gecko) Chrome/113.0.0.0 Safari/537.36 Edg/113.0.1774.42" etag="fyqsdqDiWBlCOJPiOwxE" version="21.3.2" type="github">
  <diagram id="C5RBs43oDa-KdzZeNtuy" name="Grip Authentication">
    <mxGraphModel dx="1379" dy="788" grid="1" gridSize="10" guides="1" tooltips="1" connect="1" arrows="1" fold="1" page="1" pageScale="1" pageWidth="827" pageHeight="1169" math="0" shadow="0">
      <root>
        <mxCell id="WIyWlLk6GJQsqaUBKTNV-0" />
        <mxCell id="WIyWlLk6GJQsqaUBKTNV-1" parent="WIyWlLk6GJQsqaUBKTNV-0" />
        <mxCell id="4nh_Lwaum6bo0HaYq7jl-0" value="" style="rounded=0;whiteSpace=wrap;html=1;movable=0;resizable=0;rotatable=0;deletable=0;editable=0;locked=1;connectable=0;" vertex="1" parent="WIyWlLk6GJQsqaUBKTNV-1">
          <mxGeometry x="80" y="70" width="570" height="1480" as="geometry" />
        </mxCell>
        <mxCell id="4nh_Lwaum6bo0HaYq7jl-1" value="" style="rounded=0;whiteSpace=wrap;html=1;movable=0;resizable=0;rotatable=0;deletable=0;editable=0;locked=1;connectable=0;" vertex="1" parent="WIyWlLk6GJQsqaUBKTNV-1">
          <mxGeometry x="630" y="70" width="480" height="1480" as="geometry" />
        </mxCell>
        <mxCell id="4nh_Lwaum6bo0HaYq7jl-90" style="edgeStyle=orthogonalEdgeStyle;rounded=0;orthogonalLoop=1;jettySize=auto;html=1;entryX=0;entryY=0.5;entryDx=0;entryDy=0;" edge="1" parent="WIyWlLk6GJQsqaUBKTNV-1" source="4nh_Lwaum6bo0HaYq7jl-5" target="4nh_Lwaum6bo0HaYq7jl-20">
          <mxGeometry relative="1" as="geometry" />
        </mxCell>
        <mxCell id="4nh_Lwaum6bo0HaYq7jl-5" value="Credentials" style="rounded=3;whiteSpace=wrap;html=1;" vertex="1" parent="WIyWlLk6GJQsqaUBKTNV-1">
          <mxGeometry x="329.75" y="660" width="120" height="60" as="geometry" />
        </mxCell>
        <mxCell id="4nh_Lwaum6bo0HaYq7jl-6" value="Front-End&amp;nbsp;" style="rounded=0;whiteSpace=wrap;html=1;" vertex="1" parent="WIyWlLk6GJQsqaUBKTNV-1">
          <mxGeometry x="80" y="60" width="550" height="30" as="geometry" />
        </mxCell>
        <mxCell id="4nh_Lwaum6bo0HaYq7jl-7" value="Back-End" style="rounded=0;whiteSpace=wrap;html=1;movable=0;resizable=0;rotatable=0;deletable=0;editable=0;locked=1;connectable=0;" vertex="1" parent="WIyWlLk6GJQsqaUBKTNV-1">
          <mxGeometry x="630" y="60" width="480" height="30" as="geometry" />
        </mxCell>
        <mxCell id="4nh_Lwaum6bo0HaYq7jl-30" style="edgeStyle=orthogonalEdgeStyle;rounded=0;orthogonalLoop=1;jettySize=auto;html=1;exitX=0.5;exitY=1;exitDx=0;exitDy=0;" edge="1" parent="WIyWlLk6GJQsqaUBKTNV-1" source="4nh_Lwaum6bo0HaYq7jl-8" target="4nh_Lwaum6bo0HaYq7jl-48">
          <mxGeometry relative="1" as="geometry">
            <mxPoint x="220" y="210" as="targetPoint" />
          </mxGeometry>
        </mxCell>
        <mxCell id="4nh_Lwaum6bo0HaYq7jl-8" value="&lt;b&gt;URL Visit&lt;/b&gt; : Account Page&lt;br&gt;(/account)" style="rounded=1;whiteSpace=wrap;html=1;fontSize=12;glass=0;strokeWidth=1;shadow=0;" vertex="1" parent="WIyWlLk6GJQsqaUBKTNV-1">
          <mxGeometry x="100" y="100" width="150" height="80" as="geometry" />
        </mxCell>
        <mxCell id="4nh_Lwaum6bo0HaYq7jl-96" value="" style="edgeStyle=orthogonalEdgeStyle;rounded=0;orthogonalLoop=1;jettySize=auto;html=1;" edge="1" parent="WIyWlLk6GJQsqaUBKTNV-1" source="4nh_Lwaum6bo0HaYq7jl-20" target="4nh_Lwaum6bo0HaYq7jl-95">
          <mxGeometry relative="1" as="geometry" />
        </mxCell>
        <mxCell id="4nh_Lwaum6bo0HaYq7jl-20" value="POST: API /Credentials" style="rounded=0;whiteSpace=wrap;html=1;" vertex="1" parent="WIyWlLk6GJQsqaUBKTNV-1">
          <mxGeometry x="680" y="657.5" width="140" height="65" as="geometry" />
        </mxCell>
        <mxCell id="4nh_Lwaum6bo0HaYq7jl-129" value="" style="edgeStyle=orthogonalEdgeStyle;rounded=0;orthogonalLoop=1;jettySize=auto;html=1;" edge="1" parent="WIyWlLk6GJQsqaUBKTNV-1" source="4nh_Lwaum6bo0HaYq7jl-33" target="4nh_Lwaum6bo0HaYq7jl-39">
          <mxGeometry relative="1" as="geometry" />
        </mxCell>
        <mxCell id="4nh_Lwaum6bo0HaYq7jl-33" value="Account Page" style="rounded=1;whiteSpace=wrap;html=1;fontSize=12;glass=0;strokeWidth=1;shadow=0;" vertex="1" parent="WIyWlLk6GJQsqaUBKTNV-1">
          <mxGeometry x="115.75" y="1040" width="150" height="80" as="geometry" />
        </mxCell>
        <mxCell id="4nh_Lwaum6bo0HaYq7jl-132" value="" style="edgeStyle=orthogonalEdgeStyle;rounded=0;orthogonalLoop=1;jettySize=auto;html=1;" edge="1" parent="WIyWlLk6GJQsqaUBKTNV-1" source="4nh_Lwaum6bo0HaYq7jl-39" target="4nh_Lwaum6bo0HaYq7jl-131">
          <mxGeometry relative="1" as="geometry" />
        </mxCell>
        <mxCell id="4nh_Lwaum6bo0HaYq7jl-39" value="Select User From List&amp;nbsp;" style="rounded=1;whiteSpace=wrap;html=1;fontSize=12;glass=0;strokeWidth=1;shadow=0;" vertex="1" parent="WIyWlLk6GJQsqaUBKTNV-1">
          <mxGeometry x="115.75" y="1160" width="150" height="80" as="geometry" />
        </mxCell>
        <mxCell id="4nh_Lwaum6bo0HaYq7jl-70" value="" style="edgeStyle=orthogonalEdgeStyle;rounded=0;orthogonalLoop=1;jettySize=auto;html=1;" edge="1" parent="WIyWlLk6GJQsqaUBKTNV-1" source="4nh_Lwaum6bo0HaYq7jl-48" target="4nh_Lwaum6bo0HaYq7jl-67">
          <mxGeometry relative="1" as="geometry" />
        </mxCell>
        <mxCell id="4nh_Lwaum6bo0HaYq7jl-48" value="Get Active User&lt;br&gt;(LocalStorage)" style="rounded=1;whiteSpace=wrap;html=1;fontSize=12;glass=0;strokeWidth=1;shadow=0;" vertex="1" parent="WIyWlLk6GJQsqaUBKTNV-1">
          <mxGeometry x="115.75" y="210" width="118.5" height="80" as="geometry" />
        </mxCell>
        <mxCell id="4nh_Lwaum6bo0HaYq7jl-89" value="" style="edgeStyle=orthogonalEdgeStyle;rounded=0;orthogonalLoop=1;jettySize=auto;html=1;" edge="1" parent="WIyWlLk6GJQsqaUBKTNV-1" source="4nh_Lwaum6bo0HaYq7jl-53" target="4nh_Lwaum6bo0HaYq7jl-5">
          <mxGeometry relative="1" as="geometry" />
        </mxCell>
        <mxCell id="4nh_Lwaum6bo0HaYq7jl-53" value="Redirect To Tenant Login Page (aab-fe)&lt;br&gt;" style="rounded=1;whiteSpace=wrap;html=1;fontSize=12;glass=0;strokeWidth=1;shadow=0;" vertex="1" parent="WIyWlLk6GJQsqaUBKTNV-1">
          <mxGeometry x="330.5" y="520" width="118.5" height="80" as="geometry" />
        </mxCell>
        <mxCell id="4nh_Lwaum6bo0HaYq7jl-116" style="edgeStyle=orthogonalEdgeStyle;rounded=0;orthogonalLoop=1;jettySize=auto;html=1;entryX=0.5;entryY=0;entryDx=0;entryDy=0;" edge="1" parent="WIyWlLk6GJQsqaUBKTNV-1" source="4nh_Lwaum6bo0HaYq7jl-65" target="4nh_Lwaum6bo0HaYq7jl-114">
          <mxGeometry relative="1" as="geometry" />
        </mxCell>
        <mxCell id="4nh_Lwaum6bo0HaYq7jl-65" value="GET: v1/general&lt;br&gt;&lt;br&gt;Get user general information" style="rounded=3;whiteSpace=wrap;html=1;" vertex="1" parent="WIyWlLk6GJQsqaUBKTNV-1">
          <mxGeometry x="760" y="360" width="130" height="70" as="geometry" />
        </mxCell>
        <mxCell id="4nh_Lwaum6bo0HaYq7jl-71" value="Yes" style="edgeStyle=orthogonalEdgeStyle;rounded=0;orthogonalLoop=1;jettySize=auto;html=1;" edge="1" parent="WIyWlLk6GJQsqaUBKTNV-1" source="4nh_Lwaum6bo0HaYq7jl-67" target="4nh_Lwaum6bo0HaYq7jl-69">
          <mxGeometry relative="1" as="geometry" />
        </mxCell>
        <mxCell id="4nh_Lwaum6bo0HaYq7jl-83" value="No" style="edgeStyle=orthogonalEdgeStyle;rounded=0;orthogonalLoop=1;jettySize=auto;html=1;entryX=0.5;entryY=0;entryDx=0;entryDy=0;" edge="1" parent="WIyWlLk6GJQsqaUBKTNV-1" source="4nh_Lwaum6bo0HaYq7jl-67" target="4nh_Lwaum6bo0HaYq7jl-84">
          <mxGeometry relative="1" as="geometry">
            <mxPoint x="175" y="520" as="targetPoint" />
          </mxGeometry>
        </mxCell>
        <mxCell id="4nh_Lwaum6bo0HaYq7jl-67" value="Active User Is Present?" style="rhombus;whiteSpace=wrap;html=1;shadow=0;fontFamily=Helvetica;fontSize=12;align=center;strokeWidth=1;spacing=6;spacingTop=-4;" vertex="1" parent="WIyWlLk6GJQsqaUBKTNV-1">
          <mxGeometry x="120" y="340" width="110" height="110" as="geometry" />
        </mxCell>
        <mxCell id="4nh_Lwaum6bo0HaYq7jl-76" style="edgeStyle=orthogonalEdgeStyle;rounded=0;orthogonalLoop=1;jettySize=auto;html=1;entryX=0;entryY=0.5;entryDx=0;entryDy=0;" edge="1" parent="WIyWlLk6GJQsqaUBKTNV-1" source="4nh_Lwaum6bo0HaYq7jl-69" target="4nh_Lwaum6bo0HaYq7jl-65">
          <mxGeometry relative="1" as="geometry" />
        </mxCell>
        <mxCell id="4nh_Lwaum6bo0HaYq7jl-77" value="Yes" style="edgeLabel;html=1;align=center;verticalAlign=middle;resizable=0;points=[];" vertex="1" connectable="0" parent="4nh_Lwaum6bo0HaYq7jl-76">
          <mxGeometry x="-0.3214" y="4" relative="1" as="geometry">
            <mxPoint as="offset" />
          </mxGeometry>
        </mxCell>
        <mxCell id="4nh_Lwaum6bo0HaYq7jl-80" value="No" style="edgeStyle=orthogonalEdgeStyle;rounded=0;orthogonalLoop=1;jettySize=auto;html=1;" edge="1" parent="WIyWlLk6GJQsqaUBKTNV-1" source="4nh_Lwaum6bo0HaYq7jl-69" target="4nh_Lwaum6bo0HaYq7jl-53">
          <mxGeometry relative="1" as="geometry" />
        </mxCell>
        <mxCell id="4nh_Lwaum6bo0HaYq7jl-69" value="Active User has Valid Session?" style="rhombus;whiteSpace=wrap;html=1;shadow=0;fontFamily=Helvetica;fontSize=12;align=center;strokeWidth=1;spacing=6;spacingTop=-4;" vertex="1" parent="WIyWlLk6GJQsqaUBKTNV-1">
          <mxGeometry x="334.75" y="340" width="110" height="110" as="geometry" />
        </mxCell>
        <mxCell id="4nh_Lwaum6bo0HaYq7jl-72" value="Display User Details (Redirect to Account Page)" style="rounded=1;whiteSpace=wrap;html=1;fontSize=12;glass=0;strokeWidth=1;shadow=0;fillColor=#dae8fc;strokeColor=#6c8ebf;" vertex="1" parent="WIyWlLk6GJQsqaUBKTNV-1">
          <mxGeometry x="484.75" y="480" width="130" height="80" as="geometry" />
        </mxCell>
        <mxCell id="4nh_Lwaum6bo0HaYq7jl-87" value="" style="edgeStyle=orthogonalEdgeStyle;rounded=0;orthogonalLoop=1;jettySize=auto;html=1;" edge="1" parent="WIyWlLk6GJQsqaUBKTNV-1" source="4nh_Lwaum6bo0HaYq7jl-84" target="4nh_Lwaum6bo0HaYq7jl-53">
          <mxGeometry relative="1" as="geometry" />
        </mxCell>
        <mxCell id="4nh_Lwaum6bo0HaYq7jl-88" value="Select User" style="edgeLabel;html=1;align=center;verticalAlign=middle;resizable=0;points=[];" vertex="1" connectable="0" parent="4nh_Lwaum6bo0HaYq7jl-87">
          <mxGeometry x="-0.2364" y="1" relative="1" as="geometry">
            <mxPoint as="offset" />
          </mxGeometry>
        </mxCell>
        <mxCell id="4nh_Lwaum6bo0HaYq7jl-84" value="Redirect To Select Tenant (aab-fe)" style="rounded=1;whiteSpace=wrap;html=1;fontSize=12;glass=0;strokeWidth=1;shadow=0;" vertex="1" parent="WIyWlLk6GJQsqaUBKTNV-1">
          <mxGeometry x="115.75" y="520" width="118.5" height="80" as="geometry" />
        </mxCell>
        <mxCell id="4nh_Lwaum6bo0HaYq7jl-93" style="edgeStyle=orthogonalEdgeStyle;rounded=0;orthogonalLoop=1;jettySize=auto;html=1;entryX=0.998;entryY=0.643;entryDx=0;entryDy=0;entryPerimeter=0;" edge="1" parent="WIyWlLk6GJQsqaUBKTNV-1" source="4nh_Lwaum6bo0HaYq7jl-91" target="4nh_Lwaum6bo0HaYq7jl-48">
          <mxGeometry relative="1" as="geometry">
            <Array as="points">
              <mxPoint x="350" y="261" />
            </Array>
          </mxGeometry>
        </mxCell>
        <mxCell id="4nh_Lwaum6bo0HaYq7jl-91" value="&lt;b&gt;URL Visit&lt;/b&gt; : Portal URL&lt;br&gt;" style="rounded=1;whiteSpace=wrap;html=1;fontSize=12;glass=0;strokeWidth=1;shadow=0;" vertex="1" parent="WIyWlLk6GJQsqaUBKTNV-1">
          <mxGeometry x="280" y="100" width="150" height="80" as="geometry" />
        </mxCell>
        <mxCell id="4nh_Lwaum6bo0HaYq7jl-99" value="Yes" style="edgeStyle=orthogonalEdgeStyle;rounded=0;orthogonalLoop=1;jettySize=auto;html=1;entryX=1;entryY=0.5;entryDx=0;entryDy=0;" edge="1" parent="WIyWlLk6GJQsqaUBKTNV-1" source="4nh_Lwaum6bo0HaYq7jl-95" target="4nh_Lwaum6bo0HaYq7jl-100">
          <mxGeometry relative="1" as="geometry">
            <mxPoint x="594.75" y="845" as="targetPoint" />
          </mxGeometry>
        </mxCell>
        <mxCell id="4nh_Lwaum6bo0HaYq7jl-95" value="Credentials&lt;br&gt;Valid?" style="rhombus;whiteSpace=wrap;html=1;shadow=0;fontFamily=Helvetica;fontSize=12;align=center;strokeWidth=1;spacing=6;spacingTop=-4;" vertex="1" parent="WIyWlLk6GJQsqaUBKTNV-1">
          <mxGeometry x="695" y="790" width="110" height="110" as="geometry" />
        </mxCell>
        <mxCell id="4nh_Lwaum6bo0HaYq7jl-108" value="No" style="edgeStyle=orthogonalEdgeStyle;rounded=0;orthogonalLoop=1;jettySize=auto;html=1;" edge="1" parent="WIyWlLk6GJQsqaUBKTNV-1" source="4nh_Lwaum6bo0HaYq7jl-100" target="4nh_Lwaum6bo0HaYq7jl-107">
          <mxGeometry relative="1" as="geometry" />
        </mxCell>
        <mxCell id="4nh_Lwaum6bo0HaYq7jl-122" value="" style="edgeStyle=orthogonalEdgeStyle;rounded=0;orthogonalLoop=1;jettySize=auto;html=1;" edge="1" parent="WIyWlLk6GJQsqaUBKTNV-1" source="4nh_Lwaum6bo0HaYq7jl-100" target="4nh_Lwaum6bo0HaYq7jl-118">
          <mxGeometry relative="1" as="geometry" />
        </mxCell>
        <mxCell id="4nh_Lwaum6bo0HaYq7jl-100" value="Redirect URL == Account" style="rhombus;whiteSpace=wrap;html=1;" vertex="1" parent="WIyWlLk6GJQsqaUBKTNV-1">
          <mxGeometry x="480" y="785" width="120" height="120" as="geometry" />
        </mxCell>
        <mxCell id="4nh_Lwaum6bo0HaYq7jl-102" value="Redirect to Portal" style="rounded=1;whiteSpace=wrap;html=1;fontSize=12;glass=0;strokeWidth=1;shadow=0;fillColor=#d5e8d4;strokeColor=#82b366;" vertex="1" parent="WIyWlLk6GJQsqaUBKTNV-1">
          <mxGeometry x="110" y="805" width="150" height="80" as="geometry" />
        </mxCell>
        <mxCell id="4nh_Lwaum6bo0HaYq7jl-109" value="" style="edgeStyle=orthogonalEdgeStyle;rounded=0;orthogonalLoop=1;jettySize=auto;html=1;" edge="1" parent="WIyWlLk6GJQsqaUBKTNV-1" source="4nh_Lwaum6bo0HaYq7jl-107" target="4nh_Lwaum6bo0HaYq7jl-102">
          <mxGeometry relative="1" as="geometry" />
        </mxCell>
        <mxCell id="4nh_Lwaum6bo0HaYq7jl-107" value="Set user to &lt;b&gt;Active&lt;br&gt;&lt;/b&gt;(LocalStorage)&lt;b&gt;&lt;br&gt;&lt;/b&gt;" style="rounded=1;whiteSpace=wrap;html=1;fontSize=12;glass=0;strokeWidth=1;shadow=0;" vertex="1" parent="WIyWlLk6GJQsqaUBKTNV-1">
          <mxGeometry x="311.5" y="805" width="118.5" height="80" as="geometry" />
        </mxCell>
        <mxCell id="4nh_Lwaum6bo0HaYq7jl-112" value="&lt;b&gt;A&lt;/b&gt;" style="ellipse;whiteSpace=wrap;html=1;aspect=fixed;fillColor=#ffe6cc;strokeColor=#d79b00;" vertex="1" parent="WIyWlLk6GJQsqaUBKTNV-1">
          <mxGeometry x="345.75" y="890" width="50" height="50" as="geometry" />
        </mxCell>
        <mxCell id="4nh_Lwaum6bo0HaYq7jl-117" style="edgeStyle=orthogonalEdgeStyle;rounded=0;orthogonalLoop=1;jettySize=auto;html=1;" edge="1" parent="WIyWlLk6GJQsqaUBKTNV-1" source="4nh_Lwaum6bo0HaYq7jl-114" target="4nh_Lwaum6bo0HaYq7jl-72">
          <mxGeometry relative="1" as="geometry" />
        </mxCell>
        <mxCell id="4nh_Lwaum6bo0HaYq7jl-114" value="&lt;b&gt;A&lt;/b&gt;" style="ellipse;whiteSpace=wrap;html=1;aspect=fixed;fillColor=#ffe6cc;strokeColor=#d79b00;" vertex="1" parent="WIyWlLk6GJQsqaUBKTNV-1">
          <mxGeometry x="800" y="495" width="50" height="50" as="geometry" />
        </mxCell>
        <mxCell id="4nh_Lwaum6bo0HaYq7jl-123" style="edgeStyle=orthogonalEdgeStyle;rounded=0;orthogonalLoop=1;jettySize=auto;html=1;entryX=1;entryY=0.75;entryDx=0;entryDy=0;" edge="1" parent="WIyWlLk6GJQsqaUBKTNV-1" source="4nh_Lwaum6bo0HaYq7jl-118" target="4nh_Lwaum6bo0HaYq7jl-65">
          <mxGeometry relative="1" as="geometry">
            <Array as="points">
              <mxPoint x="930" y="1010" />
              <mxPoint x="930" y="413" />
            </Array>
          </mxGeometry>
        </mxCell>
        <mxCell id="4nh_Lwaum6bo0HaYq7jl-118" value="Redirect to /account?tenantShortname=shortName" style="rounded=1;whiteSpace=wrap;html=1;fontSize=12;glass=0;strokeWidth=1;shadow=0;" vertex="1" parent="WIyWlLk6GJQsqaUBKTNV-1">
          <mxGeometry x="457.5" y="970" width="165" height="80" as="geometry" />
        </mxCell>
        <mxCell id="4nh_Lwaum6bo0HaYq7jl-125" style="edgeStyle=orthogonalEdgeStyle;rounded=0;orthogonalLoop=1;jettySize=auto;html=1;entryX=0.5;entryY=0;entryDx=0;entryDy=0;" edge="1" parent="WIyWlLk6GJQsqaUBKTNV-1" source="4nh_Lwaum6bo0HaYq7jl-124" target="4nh_Lwaum6bo0HaYq7jl-69">
          <mxGeometry relative="1" as="geometry" />
        </mxCell>
        <mxCell id="4nh_Lwaum6bo0HaYq7jl-124" value="&lt;b&gt;B&lt;/b&gt;" style="ellipse;whiteSpace=wrap;html=1;aspect=fixed;fillColor=#fff2cc;strokeColor=#d6b656;" vertex="1" parent="WIyWlLk6GJQsqaUBKTNV-1">
          <mxGeometry x="364.75" y="240" width="50" height="50" as="geometry" />
        </mxCell>
        <mxCell id="4nh_Lwaum6bo0HaYq7jl-127" value="&lt;b&gt;B&lt;/b&gt;" style="ellipse;whiteSpace=wrap;html=1;aspect=fixed;fillColor=#fff2cc;strokeColor=#d6b656;" vertex="1" parent="WIyWlLk6GJQsqaUBKTNV-1">
          <mxGeometry x="524.75" y="1175" width="50" height="50" as="geometry" />
        </mxCell>
        <mxCell id="4nh_Lwaum6bo0HaYq7jl-130" value="&lt;b&gt;&lt;font style=&quot;font-size: 16px;&quot;&gt;User Switching&lt;/font&gt;&lt;/b&gt;" style="text;html=1;strokeColor=none;fillColor=none;align=center;verticalAlign=middle;whiteSpace=wrap;rounded=0;" vertex="1" parent="WIyWlLk6GJQsqaUBKTNV-1">
          <mxGeometry x="110" y="995" width="150" height="30" as="geometry" />
        </mxCell>
        <mxCell id="4nh_Lwaum6bo0HaYq7jl-133" value="" style="edgeStyle=orthogonalEdgeStyle;rounded=0;orthogonalLoop=1;jettySize=auto;html=1;" edge="1" parent="WIyWlLk6GJQsqaUBKTNV-1" source="4nh_Lwaum6bo0HaYq7jl-131" target="4nh_Lwaum6bo0HaYq7jl-127">
          <mxGeometry relative="1" as="geometry" />
        </mxCell>
        <mxCell id="4nh_Lwaum6bo0HaYq7jl-131" value="Set User To Active&lt;br&gt;(LocalStorage)" style="rounded=1;whiteSpace=wrap;html=1;fontSize=12;glass=0;strokeWidth=1;shadow=0;" vertex="1" parent="WIyWlLk6GJQsqaUBKTNV-1">
          <mxGeometry x="320" y="1160" width="150" height="80" as="geometry" />
        </mxCell>
        <mxCell id="4nh_Lwaum6bo0HaYq7jl-134" value="&lt;b&gt;&lt;font style=&quot;font-size: 16px;&quot;&gt;Logout&lt;/font&gt;&lt;/b&gt;" style="text;html=1;strokeColor=none;fillColor=none;align=center;verticalAlign=middle;whiteSpace=wrap;rounded=0;" vertex="1" parent="WIyWlLk6GJQsqaUBKTNV-1">
          <mxGeometry x="110" y="1290" width="150" height="30" as="geometry" />
        </mxCell>
        <mxCell id="4nh_Lwaum6bo0HaYq7jl-139" value="" style="edgeStyle=orthogonalEdgeStyle;rounded=0;orthogonalLoop=1;jettySize=auto;html=1;" edge="1" parent="WIyWlLk6GJQsqaUBKTNV-1" source="4nh_Lwaum6bo0HaYq7jl-135" target="4nh_Lwaum6bo0HaYq7jl-136">
          <mxGeometry relative="1" as="geometry" />
        </mxCell>
        <mxCell id="4nh_Lwaum6bo0HaYq7jl-135" value="Portal" style="rounded=1;whiteSpace=wrap;html=1;fontSize=12;glass=0;strokeWidth=1;shadow=0;" vertex="1" parent="WIyWlLk6GJQsqaUBKTNV-1">
          <mxGeometry x="115.75" y="1330" width="150" height="80" as="geometry" />
        </mxCell>
        <mxCell id="4nh_Lwaum6bo0HaYq7jl-140" value="" style="edgeStyle=orthogonalEdgeStyle;rounded=0;orthogonalLoop=1;jettySize=auto;html=1;" edge="1" parent="WIyWlLk6GJQsqaUBKTNV-1" source="4nh_Lwaum6bo0HaYq7jl-136" target="4nh_Lwaum6bo0HaYq7jl-137">
          <mxGeometry relative="1" as="geometry" />
        </mxCell>
        <mxCell id="4nh_Lwaum6bo0HaYq7jl-136" value="Logout Active User" style="rounded=1;whiteSpace=wrap;html=1;fontSize=12;glass=0;strokeWidth=1;shadow=0;" vertex="1" parent="WIyWlLk6GJQsqaUBKTNV-1">
          <mxGeometry x="115.75" y="1450" width="150" height="80" as="geometry" />
        </mxCell>
        <mxCell id="4nh_Lwaum6bo0HaYq7jl-141" value="" style="edgeStyle=orthogonalEdgeStyle;rounded=0;orthogonalLoop=1;jettySize=auto;html=1;" edge="1" parent="WIyWlLk6GJQsqaUBKTNV-1" source="4nh_Lwaum6bo0HaYq7jl-137" target="4nh_Lwaum6bo0HaYq7jl-138">
          <mxGeometry relative="1" as="geometry" />
        </mxCell>
        <mxCell id="4nh_Lwaum6bo0HaYq7jl-137" value="Remove from session list&lt;br&gt;(LocalStorage)" style="rounded=1;whiteSpace=wrap;html=1;fontSize=12;glass=0;strokeWidth=1;shadow=0;" vertex="1" parent="WIyWlLk6GJQsqaUBKTNV-1">
          <mxGeometry x="320" y="1450" width="150" height="80" as="geometry" />
        </mxCell>
        <mxCell id="4nh_Lwaum6bo0HaYq7jl-138" value="&lt;b&gt;C&lt;/b&gt;" style="ellipse;whiteSpace=wrap;html=1;aspect=fixed;fillColor=#e1d5e7;strokeColor=#9673a6;" vertex="1" parent="WIyWlLk6GJQsqaUBKTNV-1">
          <mxGeometry x="524.75" y="1465" width="50" height="50" as="geometry" />
        </mxCell>
        <mxCell id="4nh_Lwaum6bo0HaYq7jl-143" style="edgeStyle=orthogonalEdgeStyle;rounded=0;orthogonalLoop=1;jettySize=auto;html=1;entryX=0.004;entryY=0.91;entryDx=0;entryDy=0;entryPerimeter=0;" edge="1" parent="WIyWlLk6GJQsqaUBKTNV-1" source="4nh_Lwaum6bo0HaYq7jl-142" target="4nh_Lwaum6bo0HaYq7jl-53">
          <mxGeometry relative="1" as="geometry" />
        </mxCell>
        <mxCell id="4nh_Lwaum6bo0HaYq7jl-142" value="&lt;b&gt;C&lt;/b&gt;" style="ellipse;whiteSpace=wrap;html=1;aspect=fixed;fillColor=#e1d5e7;strokeColor=#9673a6;" vertex="1" parent="WIyWlLk6GJQsqaUBKTNV-1">
          <mxGeometry x="150" y="640" width="50" height="50" as="geometry" />
        </mxCell>
      </root>
    </mxGraphModel>
  </diagram>
</mxfile>
